# xmcd
#
# Track frame offsets: 
#        150
#        22981
#        42209
#        65579
#        94605
#        119875
#        141487
#        157843
#        180100
#        202676
#        230317
#        267475
#        283263
#        294864
#        311745
#        330644
#
# Disc length: 4736 seconds
#
# Revision: 0
# Processed by: cddbd v1.5.2PL0 Copyright (c) Steve Scherf et al.
# Submitted via: ExactAudioCopy v1.3
#
DISCID=e1127e10
DTITLE=Ina Forsman, Tasha Taylor, Layla Zoe - Blues Sisters In Concert
DTITLE=, Blues Caravan 2016
DYEAR=2017
DGENRE=Blues
TTITLE0=Chain Of Fools
TTITLE1=Hanging Loose
TTITLE2=Devil May Dance Tonight
TTITLE3=Bubbly Kisses
TTITLE4=No Room For Love
TTITLE5=What Difference Does It Make
TTITLE6=Weatherman
TTITLE7=Who's Making Love
TTITLE8=Work Horse
TTITLE9=Don't Wanna Hurt Nobody
TTITLE10=Never Met A Man Like You
TTITLE11=Honky Tonk Woman
TTITLE12=Tell Mama
TTITLE13=In The Basement
TTITLE14=Come Together
TTITLE15=Rock Me Baby
EXTD=
EXTT0=
EXTT1=
EXTT2=
EXTT3=
EXTT4=
EXTT5=
EXTT6=
EXTT7=
EXTT8=
EXTT9=
EXTT10=
EXTT11=
EXTT12=
EXTT13=
EXTT14=
EXTT15=
PLAYORDER=
